<svg xmlns="http://www.w3.org/2000/svg" xmlns:xlink="http://www.w3.org/1999/xlink" width="119.699" height="111" viewBox="0 0 119.699 111">
  <defs>
    <clipPath id="clip-path">
      <path id="Path_2" data-name="Path 2" d="M397,2h24.365V112.956H397Z" transform="translate(-397 -2)" clip-rule="evenodd"/>
    </clipPath>
  </defs>
  <g id="Layer_x0020_1" transform="translate(-1 -1.846)">
    <g id="_2839780918304" transform="translate(1 1.846)">
      <g id="Group_3" data-name="Group 3" transform="translate(40.466 0.072)">
        <rect id="Rectangle_3" data-name="Rectangle 3" width="22.411" height="44.818" transform="translate(31.688 15.847) rotate(-45)" fill="#00ffd9"/>
        <rect id="Rectangle_4" data-name="Rectangle 4" width="22.411" height="44.818" transform="translate(0 79.224) rotate(-45)" fill="#00ffd9"/>
        <rect id="Rectangle_5" data-name="Rectangle 5" width="22.411" height="89.641" transform="translate(0 31.691) rotate(-45)" fill="#00ffd9"/>
      </g>
      <path id="Path_1" data-name="Path 1" d="M397,2h24.365V112.956H397Z" transform="translate(-361.132 -1.956)" fill="#ff3838" fill-rule="evenodd"/>
      <g id="Group_6" data-name="Group 6" transform="translate(35.868 0.044)" clip-path="url(#clip-path)">
        <g id="Group_5" data-name="Group 5" transform="translate(4.598 0.028)">
          <g id="Group_4" data-name="Group 4" transform="translate(0 0)">
            <rect id="Rectangle_6" data-name="Rectangle 6" width="22.411" height="44.818" transform="translate(31.688 15.847) rotate(-45)" fill="#8f0029"/>
            <rect id="Rectangle_7" data-name="Rectangle 7" width="22.411" height="44.818" transform="translate(0 79.224) rotate(-45)" fill="#8f0029"/>
            <rect id="Rectangle_8" data-name="Rectangle 8" width="22.411" height="89.641" transform="translate(0 31.691) rotate(-45)" fill="#8f0029"/>
          </g>
        </g>
      </g>
      <path id="Path_3" data-name="Path 3" d="M397,2h24.365V112.956H397Z" transform="translate(-361.132 -1.956)" fill="none" fill-rule="evenodd"/>
      <rect id="Rectangle_9" data-name="Rectangle 9" width="24" height="110" fill="#ff3838"/>
    </g>
  </g>
</svg>
