<?xml version="1.0" encoding="utf-8"?>
<!-- Generator: Adobe Illustrator 24.0.2, SVG Export Plug-In . SVG Version: 6.00 Build 0)  -->
<svg version="1.1" id="Layer_1" xmlns="http://www.w3.org/2000/svg" xmlns:xlink="http://www.w3.org/1999/xlink" x="0px" y="0px"
	 viewBox="0 0 364 364" style="enable-background:new 0 0 364 364;" xml:space="preserve">
<style type="text/css">
	.st0{fill:#1B1B1B;}
	.st1{fill:#FF3838;}
</style>
<path class="st0" d="M182,363.9c-59.3,0-118.6,0-177.9,0.1c-3.4,0-4.1-0.7-4.1-4.1C0.1,241.3,0.1,122.7,0,4.1C0,0.7,0.7,0,4.1,0
	c118.6,0.1,237.2,0.1,355.8,0c3.4,0,4.1,0.7,4.1,4.1c-0.1,118.6-0.1,237.2,0,355.8c0,3.4-0.7,4.1-4.1,4.1
	C300.6,363.9,241.3,363.9,182,363.9z"/>
<path class="st1" d="M156.7,200.3c-9.4,6.3-19.4,9.2-30.3,8.9c-21.5-0.6-40.1-14.6-46.7-35.3c-6.4-20.1,0.8-42.7,17.6-55.4
	c17.4-13.1,40.4-13.7,58.4-1.4c2.3,1.6,4.5,3.5,6.5,5.4c9.1,8.9,9,9.1,1.3,19.2c-1.7,2.2-2.7,2.4-4.3,0.1c-2.7-4-5.8-7.8-9.6-10.8
	c-11.2-8.8-29.1-8.8-41.2,0c-13,9.4-18.1,26.1-12.5,41.4c5.2,14.2,18.6,22.9,33.9,22c8.7-0.5,16.1-3.8,22.2-10
	c6.9-7,13.1-14.7,18.5-22.9c9.5-14.5,19.2-28.9,32.6-40.2c28.5-24.3,71.9-11.1,81.7,24.8c6.5,23.6-5.5,49-27.8,59
	c-22.5,10.1-48.9,2.3-62.7-18.3c-1.3-1.9-1-3.1,0.1-4.8c6.6-10.1,6.6-10.1,14-1c10.2,12.6,25.5,16.7,39.9,10.8
	c14.7-6.1,23.6-20.8,22-36.2c-1.7-16-12.7-28.7-27.8-31.2c-11.3-1.9-21.4,1.1-30.2,8.6c-9.5,8.3-17.1,18.2-24,28.7
	c-4.7,7.1-9.3,14.2-14.7,20.8c-1.5,1.9-1.8,3.8-1.8,6c0.1,11.5,0.1,23,0,34.5c-0.1,28.2-19.7,46-47.8,43.6
	c-13.4-1.2-25.2-5.6-34.7-15.6c-2.1-2.3-2.6-3.8-0.1-6.1c2.5-2.2,4.2-6.1,6.9-6.9c2.8-0.8,4.3,3.8,6.7,5.6c12.5,9,26,10.8,40.2,5.2
	c8.5-3.4,12.8-10.9,13.5-19.6C157.3,219.8,156.7,210.3,156.7,200.3z"/>
</svg>
